<?xml version="1.0" encoding="UTF-8"?>
<svg version="1.1" xmlns="http://www.w3.org/2000/svg" width="500" height="500">
<path d="M0 0 C165 0 330 0 500 0 C500 165 500 330 500 500 C335 500 170 500 0 500 C0 335 0 170 0 0 Z " fill="#DDFCFC" transform="translate(0,0)"/>
<path d="M0 0 C-0.27714844 1.08539063 -0.55429688 2.17078125 -0.83984375 3.2890625 C-1.2058563 4.73434281 -1.5717346 6.17965712 -1.9375 7.625 C-2.11990234 8.33785156 -2.30230469 9.05070313 -2.49023438 9.78515625 C-5.55180796 21.92012063 -6.70326754 34.83598252 -3 47 C-1.93354885 48.29633621 -1.93354885 48.29633621 0.5625 48.0625 C1.366875 48.041875 2.17125 48.02125 3 48 C6.13158498 35.94602206 8.82519641 23.81826942 11.43066406 11.64111328 C12.26807153 7.75643318 13.13288577 3.87814853 14 0 C22.84538402 0 29.36168973 3.93526195 36.98535156 7.95556641 C39.9946626 9.51565276 43.04928987 10.94975675 46.125 12.375 C47.11757812 12.83648437 48.11015625 13.29796875 49.1328125 13.7734375 C53.59642376 15.68293877 57.10777149 17 62 17 C59.69 15.35 57.38 13.7 55 12 C55.33 11.01 55.66 10.02 56 9 C59.28846738 7.6442661 62.62592221 7.95815086 66.12890625 8.078125 C67.93004883 8.11679688 67.93004883 8.11679688 69.76757812 8.15625 C72.27063775 8.21808575 74.77336126 8.29586113 77.27539062 8.390625 C85.86106641 8.53699774 91.44822838 6.90843477 99 3 C107.8348136 0.14911852 116.66473424 -0.26764003 125.875 -0.3125 C127.31891113 -0.32083862 127.31891113 -0.32083862 128.79199219 -0.3293457 C142.49016455 -0.1908488 153.51599321 4.04297111 164 13 C164.78117187 14.32064453 164.78117187 14.32064453 165.578125 15.66796875 C166.86660868 18.39246824 166.86660868 18.39246824 170.4375 18.875 C173.73931164 19.1597521 173.73931164 19.1597521 175.828125 18.52734375 C178.66413886 17.83874326 181.39701177 17.8051956 184.3125 17.6875 C194.75031113 16.94194206 204.12739621 14.02814216 213.94140625 10.58203125 C214.5674324 10.36263382 215.19345856 10.14323639 215.8384552 9.91719055 C219.00190011 8.80638154 222.15762368 7.68036509 225.30688477 6.52954102 C236.82498018 2.41888673 246.73280097 1 259 1 C259 37.96 259 74.92 259 113 C260.32 113.33 261.64 113.66 263 114 C265.42522207 116.42522207 265.29629254 117.1720679 265.3125 120.5 C265.32925781 121.2940625 265.34601563 122.088125 265.36328125 122.90625 C265.18345703 123.94265625 265.18345703 123.94265625 265 125 C261.78736133 127.14175911 260.9709726 127.25026418 257.27919674 127.25168228 C256.30258963 127.25689778 255.32598251 127.26211327 254.31978124 127.26748681 C252.70657353 127.26079465 252.70657353 127.26079465 251.06077576 127.25396729 C249.35008088 127.25864726 249.35008088 127.25864726 247.60482651 127.26342177 C244.43437469 127.27003301 241.2640752 127.26763434 238.0936271 127.26144934 C234.67642335 127.25693512 231.25924062 127.26390344 227.84204102 127.26940918 C221.14610679 127.27831559 214.45021733 127.27637572 207.75428133 127.2705839 C202.31433895 127.26607269 196.87440913 127.26545215 191.43446541 127.26763153 C190.2744526 127.26809123 190.2744526 127.26809123 189.09100519 127.26856022 C187.52013826 127.26919965 185.94927132 127.26984807 184.37840439 127.2705054 C169.63898881 127.27621225 154.89959809 127.26964504 140.1601866 127.25890467 C127.50269333 127.24996706 114.84523674 127.25152223 102.18774414 127.26074219 C87.5006101 127.27143551 72.81349786 127.27566476 58.12636048 127.26951766 C56.56147993 127.26888054 54.99659938 127.2682518 53.43171883 127.26763153 C52.66169845 127.26732298 51.89167807 127.26701443 51.09832374 127.26669653 C45.66201946 127.2649669 40.22572895 127.2678904 34.7894268 127.27259064 C28.1686307 127.27818899 21.54788205 127.27670507 14.92709141 127.26602915 C11.54662641 127.26075855 8.16624063 127.25873917 4.78577614 127.26532745 C1.12785062 127.27075077 -2.52984851 127.26398799 -6.1877594 127.25396729 C-7.8043132 127.26065945 -7.8043132 127.26065945 -9.45352465 127.26748681 C-10.9145237 127.25966357 -10.9145237 127.25966357 -12.40503788 127.25168228 C-13.250188 127.25135758 -14.09533812 127.25103287 -14.96609885 127.25069833 C-17 127 -17 127 -19 125 C-19.30078125 122.6875 -19.30078125 122.6875 -19.3125 120 C-19.32925781 119.113125 -19.34601563 118.22625 -19.36328125 117.3125 C-19.24339844 116.549375 -19.12351562 115.78625 -19 115 C-16 113 -16 113 -13 113 C-13 76.37 -13 39.74 -13 2 C-4 -0.25 -4 -0.25 0 0 Z " fill="#9FCBCB" transform="translate(127,124)"/>
<path d="M0 0 C2.31 0.33 4.62 0.66 7 1 C7 21.13 7 41.26 7 62 C-78.8 62 -164.6 62 -253 62 C-246.86363636 55.86363636 -246.86363636 55.86363636 -244.125 53.375 C-243.50882813 52.80523437 -242.89265625 52.23546875 -242.2578125 51.6484375 C-236.9515511 47.77431585 -230.93406689 46.32556564 -224.625 44.9375 C-223.87549072 44.76758545 -223.12598145 44.5976709 -222.35375977 44.42260742 C-220.88539318 44.09047499 -219.41642003 43.76100983 -217.94677734 43.43457031 C-216.35402631 43.07902769 -214.76440869 42.70947369 -213.17578125 42.3359375 C-196.6722506 38.47647309 -180.77489887 39.73270361 -164.19061279 42.14529419 C-129.42156802 47.19844406 -111.2737947 44.90992212 -82.17626953 24.48706055 C-80 23 -80 23 -78 22 C-78 20.68 -78 19.36 -78 18 C-77.40574219 17.92523438 -76.81148437 17.85046875 -76.19921875 17.7734375 C-71.24759223 16.98795398 -67.37562705 15.83246792 -63.0625 13.25 C-55.25365361 8.71332646 -46.63250242 6.4656158 -38 4 C-36.80890625 3.65582031 -35.6178125 3.31164062 -34.390625 2.95703125 C-28.70330804 1.41972349 -23.87735593 0.88733503 -18 1 C-17.94465088 1.6798999 -17.88930176 2.3597998 -17.83227539 3.06030273 C-17.57703396 6.18614709 -17.31977991 9.3118228 -17.0625 12.4375 C-16.97548828 13.50677734 -16.88847656 14.57605469 -16.79882812 15.67773438 C-16.29342017 21.79878623 -15.71204937 27.89946889 -15 34 C-13.10979385 34.65205918 -13.10979385 34.65205918 -11 35 C-1.53815847 27.76857415 -1.5121037 10.95129649 0 0 Z " fill="#F6AB79" transform="translate(379,175)"/>
<path d="M0 0 C1.33824288 -0.0048668 2.67647844 -0.01231605 4.01469421 -0.02212524 C7.62029145 -0.04079902 11.22478914 -0.02221996 14.83029985 0.00453901 C18.61817939 0.0273196 22.40601076 0.01894163 26.19393921 0.01504517 C32.55053485 0.01328437 38.90670181 0.03533566 45.26318359 0.07226562 C52.59677004 0.11463024 59.92972995 0.12161012 67.26341403 0.10914171 C74.34134613 0.0977275 81.41905918 0.10907482 88.49695969 0.1314888 C91.49918065 0.14074167 94.50126679 0.14254566 97.50349808 0.13831711 C101.04145804 0.13453184 104.57878607 0.15090547 108.11660194 0.1824379 C110.02337797 0.19487884 111.93025008 0.18793819 113.83705139 0.18029785 C121.75932559 0.27797215 127.18663147 1.25578981 133.44677734 6.42041016 C133.93146484 6.96052734 134.41615234 7.50064453 134.91552734 8.05712891 C137.94823391 11.2910906 141.1496623 14.1918846 144.52099609 17.06884766 C146.41552734 18.74462891 146.41552734 18.74462891 147.89868164 20.81567383 C151.83327395 23.83121499 155.7533982 23.30912528 160.57958984 23.28369141 C161.56800873 23.29548431 162.55642761 23.30727722 163.57479858 23.31942749 C166.73020192 23.35472743 169.88494253 23.36386353 173.04052734 23.36962891 C176.20305482 23.38594544 179.36528451 23.40791464 182.52767944 23.44125366 C184.49523226 23.46095791 186.46292209 23.47021059 188.43057251 23.46817017 C189.31844452 23.47512909 190.20631653 23.48208801 191.12109375 23.48925781 C191.90400787 23.49051666 192.686922 23.49177551 193.49356079 23.49307251 C195.41552734 23.74462891 195.41552734 23.74462891 197.41552734 25.74462891 C197.68115234 27.83837891 197.68115234 27.83837891 197.66552734 30.24462891 C197.67068359 31.03869141 197.67583984 31.83275391 197.68115234 32.65087891 C197.41552734 34.74462891 197.41552734 34.74462891 195.41552734 36.74462891 C193.36650079 36.99417657 193.36650079 36.99417657 190.78374386 36.99351788 C189.8015443 36.99811667 188.81934475 37.00271547 187.80738157 37.00745362 C186.7205329 37.00231006 185.63368423 36.99716649 184.51390076 36.99186707 C183.36541926 36.99428148 182.21693776 36.9966959 181.0336538 36.99918348 C177.83620523 37.00385953 174.63891226 36.9995122 171.44147503 36.9914192 C167.99701021 36.98485866 164.55255986 36.98978705 161.10809326 36.99330139 C154.3568739 36.99835099 147.60570339 36.99269238 140.85449009 36.98345109 C133.00004395 36.97308469 125.14560847 36.97313681 117.29115678 36.97362367 C103.28190342 36.97412466 89.27267286 36.96495244 75.26342773 36.95043945 C61.65469955 36.93634859 48.04599144 36.92926876 34.43725586 36.92993164 C33.1798735 36.92999157 33.1798735 36.92999157 31.89708947 36.93005272 C31.06031512 36.93009307 30.22354076 36.93013343 29.3614096 36.93017501 C13.88900392 36.93086406 -1.58339319 36.92497968 -17.05579611 36.91602179 C-22.53713728 36.91299976 -28.01847689 36.91194156 -33.4998188 36.91148949 C-40.17445572 36.91080881 -46.84907821 36.90636451 -53.52370901 36.89715668 C-56.93237536 36.89252558 -60.3410232 36.88949799 -63.74969292 36.89075089 C-67.43642818 36.89123771 -71.12310284 36.8856242 -74.80982971 36.87834167 C-75.8989091 36.87989028 -76.98798849 36.88143888 -78.11007029 36.88303441 C-79.0896621 36.87980996 -80.0692539 36.87658552 -81.07853031 36.87326336 C-82.35675147 36.87220672 -82.35675147 36.87220672 -83.66079527 36.87112874 C-85.58447266 36.74462891 -85.58447266 36.74462891 -86.58447266 35.74462891 C-86.65673767 33.89175389 -86.66828485 32.03629013 -86.64697266 30.18212891 C-86.63794922 29.17021484 -86.62892578 28.15830078 -86.61962891 27.11572266 C-86.60802734 26.33326172 -86.59642578 25.55080078 -86.58447266 24.74462891 C-84.24764015 23.57621265 -83.07111303 23.67971257 -80.48046875 23.79321289 C-79.20605675 23.8397551 -79.20605675 23.8397551 -77.90589905 23.88723755 C-76.98256271 23.92138763 -76.05922638 23.95553772 -75.10791016 23.99072266 C-51.64922017 25.91748746 -51.64922017 25.91748746 -31.19042969 17.24682617 C-28.99088772 14.56132495 -27.09631019 11.75174848 -25.21559715 8.83812523 C-18.75566125 0.54700332 -9.78758814 -0.12139867 0 0 Z " fill="#7FB2B2" transform="translate(194.58447265625,73.25537109375)"/>
<path d="M0 0 C90.75 0 181.5 0 275 0 C275 4.95 275 9.9 275 15 C273.67613281 15.10054687 272.35226562 15.20109375 270.98828125 15.3046875 C259.07533444 16.42665557 248.26501086 18.87765024 237 22.9375 C236.37629517 23.1619278 235.75259033 23.38635559 235.10998535 23.61758423 C232.11254561 24.69944 229.11809171 25.78935007 226.12451172 26.88183594 C216.56409047 30.30320876 207.34271271 32.40664647 197.16796875 32.83203125 C194.34279843 32.9818245 191.71555791 33.37449039 188.9375 33.875 C185 34 185 34 182.1875 31.8125 C181.465625 30.884375 180.74375 29.95625 180 29 C177.12995254 25.88662243 174.14231158 23.62913933 170.5625 21.375 C169.63566406 20.78460938 168.70882812 20.19421875 167.75390625 19.5859375 C154.03096292 11.68307936 133.56937701 13.72272748 118.546875 16.85546875 C115.13058339 17.85036403 115.13058339 17.85036403 112.64233398 19.22021484 C104.79378635 23.28162049 98.30431919 23.58109468 89.5625 23.25 C87.08472914 23.18878899 84.60686198 23.13132856 82.12890625 23.078125 C81.04681885 23.04106445 79.96473145 23.00400391 78.84985352 22.96582031 C76.34434716 22.99587008 74.37692838 23.25781551 72 24 C72 24.66 72 25.32 72 26 C73.98689731 27.35278115 75.98745218 28.68568305 78 30 C78.495 30.99 78.495 30.99 79 32 C68.87329146 31.09984813 60.28346109 26.74575688 51.49829102 21.93896484 C44.6611491 18.21758238 37.8408346 14.82535101 30 14 C29.89429688 15.22203125 29.78859375 16.4440625 29.6796875 17.703125 C28.99661816 23.83397189 27.55673158 29.75767955 26.125 35.75 C25.86847656 36.84054688 25.61195313 37.93109375 25.34765625 39.0546875 C24.83126191 41.25001217 24.31207537 43.44468199 23.79003906 45.63867188 C23.23829601 47.98613739 22.69961524 50.33669447 22.17089844 52.68945312 C21.77306152 54.4596582 21.77306152 54.4596582 21.3671875 56.265625 C21.1285498 57.34102539 20.88991211 58.41642578 20.64404297 59.52441406 C20 62 20 62 19 63 C16.625 63.3125 16.625 63.3125 14 63 C10.96962811 60.40253838 10.46156068 57.4470641 10.1328125 53.56640625 C10.08898437 52.71949219 10.04515625 51.87257812 10 51 C9.93554688 49.93652344 9.87109375 48.87304688 9.8046875 47.77734375 C9.4398167 36.4055373 10.86140747 24.27718505 16 14 C11.71 14.66 7.42 15.32 3 16 C3 52.63 3 89.26 3 127 C2.67 127 2.34 127 2 127 C2 85.42 2 43.84 2 1 C1.34 0.67 0.68 0.34 0 0 Z " fill="#B9E1E1" transform="translate(111,110)"/>
<path d="M0 0 C1.12275762 -0.00382555 2.24551525 -0.00765109 3.40229583 -0.01159257 C7.16015174 -0.02190212 10.91785427 -0.0179343 14.67572021 -0.01396179 C17.37136338 -0.01830925 20.06699534 -0.02342803 22.76263428 -0.02944946 C29.32065517 -0.04218396 35.8786351 -0.04399192 42.43666628 -0.0416492 C47.76494921 -0.03986536 53.09321971 -0.04161707 58.42150116 -0.04587364 C59.18013554 -0.04646883 59.93876992 -0.04706402 60.72039323 -0.04767724 C62.2615433 -0.04888899 63.80269336 -0.05010313 65.34384343 -0.05131962 C79.78715413 -0.06218924 94.23044146 -0.06003474 108.67375347 -0.05393478 C121.89535772 -0.0487597 135.11688842 -0.06003764 148.33847812 -0.07903299 C161.91356016 -0.09838694 175.48860736 -0.10667211 189.0637033 -0.10290974 C196.68562349 -0.1009948 204.307481 -0.10351419 211.92938995 -0.11762428 C218.41393237 -0.12950755 224.89837346 -0.13097708 231.3829172 -0.11883412 C234.69269971 -0.11292531 238.00225725 -0.11351367 241.31203461 -0.12383652 C244.89504688 -0.13420952 248.47755348 -0.12627957 252.06054688 -0.11352539 C253.11315335 -0.12089968 254.16575982 -0.12827396 255.25026345 -0.13587171 C256.20637009 -0.12866517 257.16247674 -0.12145862 258.1475563 -0.1140337 C259.38867625 -0.11411622 259.38867625 -0.11411622 260.65486932 -0.11420041 C263.28514937 0.35061835 264.16994283 1.16299197 265.77630615 3.26069641 C266.17474365 5.45210266 266.17474365 5.45210266 266.15130615 7.82319641 C266.15904053 8.60823547 266.1667749 9.39327454 266.17474365 10.20210266 C265.97751709 11.22110657 265.97751709 11.22110657 265.77630615 12.26069641 C262.56366748 14.40245552 261.74727876 14.51096059 258.05550289 14.51237869 C257.07889578 14.51759419 256.10228866 14.52280968 255.0960874 14.52818322 C253.48287968 14.52149106 253.48287968 14.52149106 251.83708191 14.5146637 C250.12638703 14.51934367 250.12638703 14.51934367 248.38113266 14.52411819 C245.21068084 14.53072942 242.04038135 14.52833075 238.86993325 14.52214575 C235.4527295 14.51763153 232.03554678 14.52459985 228.61834717 14.53010559 C221.92241294 14.539012 215.22652349 14.53707213 208.53058749 14.53128031 C203.0906451 14.5267691 197.65071528 14.52614857 192.21077156 14.52832794 C191.05075876 14.52878764 191.05075876 14.52878764 189.86731135 14.52925663 C188.29644441 14.52989606 186.72557747 14.53054448 185.15471054 14.53120181 C170.41529497 14.53690866 155.67590425 14.53034145 140.93649275 14.51960108 C128.27899948 14.51066347 115.6215429 14.51221864 102.96405029 14.5214386 C88.27691626 14.53213192 73.58980401 14.53636117 58.90266663 14.53021407 C57.33778608 14.52957695 55.77290553 14.52894821 54.20802498 14.52832794 C53.4380046 14.52801939 52.66798422 14.52771084 51.8746299 14.52739294 C46.43832561 14.52566331 41.00203511 14.52858681 35.56573296 14.53328705 C28.94493686 14.5388854 22.3241882 14.53740148 15.70339756 14.52672556 C12.32293256 14.52145496 8.94254678 14.51943558 5.56208229 14.52602386 C1.90415677 14.53144718 -1.75354235 14.5246844 -5.41145325 14.5146637 C-7.02800705 14.52135586 -7.02800705 14.52135586 -8.6772185 14.52818322 C-10.13821755 14.52035998 -10.13821755 14.52035998 -11.62873173 14.51237869 C-12.47388185 14.51205399 -13.31903196 14.51172928 -14.18979269 14.51139474 C-16.22369385 14.26069641 -16.22369385 14.26069641 -18.22369385 12.26069641 C-18.41900635 9.87788391 -18.41900635 9.87788391 -18.34869385 7.13569641 C-18.33064697 6.22561829 -18.3126001 5.31554016 -18.29400635 4.37788391 C-18.27080322 3.67921204 -18.2476001 2.98054016 -18.22369385 2.26069641 C-12.08747682 0.10375693 -6.46822562 -0.02342235 0 0 Z " fill="#80B2B1" transform="translate(126.22369384765625,236.7393035888672)"/>
<path d="M0 0 C2.53141446 1.98313575 4.95049979 4.04542467 7.35546875 6.1796875 C8.19722656 6.9015625 9.03898437 7.6234375 9.90625 8.3671875 C16.01230986 13.66494916 16.01230986 13.66494916 18.35546875 17.1796875 C18.81666242 25.63490487 13.75408491 31.10205284 8.35546875 37.1796875 C-5.51106833 50.86909728 -23.44874431 53.36172382 -41.95703125 53.3046875 C-43.23126953 53.30855469 -44.50550781 53.31242187 -45.81835938 53.31640625 C-47.03587891 53.31511719 -48.25339844 53.31382812 -49.5078125 53.3125 C-50.61423096 53.31137207 -51.72064941 53.31024414 -52.8605957 53.30908203 C-55.64453125 53.1796875 -55.64453125 53.1796875 -58.64453125 52.1796875 C-57.44358614 48.57685218 -56.63514665 48.35008076 -53.45703125 46.4921875 C-46.19626001 41.82867148 -42.8532463 35.97630214 -39.64453125 28.1796875 C-52.1539589 30.69792853 -52.1539589 30.69792853 -63.8828125 35.54296875 C-65.64453125 36.1796875 -65.64453125 36.1796875 -69.64453125 35.1796875 C-69.64453125 26.2696875 -69.64453125 17.3596875 -69.64453125 8.1796875 C-65.19218055 7.06659983 -65.19218055 7.06659983 -62.01953125 8.9296875 C-54.94465473 12.73013232 -47.59750729 14.44330083 -39.64453125 15.1796875 C-44.26858531 5.41990127 -48.42566604 -0.08806939 -57.64453125 -5.8203125 C-57.31453125 -6.8103125 -56.98453125 -7.8003125 -56.64453125 -8.8203125 C-40.8127996 -14.84771006 -13.40686244 -9.2283573 0 0 Z " fill="#ED7751" transform="translate(239.64453125,141.8203125)"/>
<path d="M0 0 C0.94875 0.04125 1.8975 0.0825 2.875 0.125 C4.29134833 2.95769666 4.2213005 5.59966438 4.4375 8.75 C4.52128906 9.93851562 4.60507812 11.12703125 4.69140625 12.3515625 C4.75199219 13.26679688 4.81257813 14.18203125 4.875 15.125 C5.679375 14.63 6.48375 14.135 7.3125 13.625 C12.37968879 11.49144682 16.81550717 11.12135685 22.08984375 12.8515625 C27.84193198 15.48659733 31.42054593 19.25927078 33.875 25.125 C34.77571004 32.4563608 34.42995121 39.10744977 29.875 45.125 C25.62252451 49.56622766 21.8044522 51.27357603 15.6875 51.4375 C10.0492905 51.41500714 6.66271067 50.01569324 1.875 47.125 C1.215 48.445 0.555 49.765 -0.125 51.125 C-1.775 51.125 -3.425 51.125 -5.125 51.125 C-5.17558729 44.18329978 -5.21068579 37.24164685 -5.23486328 30.29980469 C-5.24493924 27.93683089 -5.25860029 25.57386961 -5.27587891 23.2109375 C-5.30005724 19.82028112 -5.31146699 16.42978916 -5.3203125 13.0390625 C-5.33063507 11.97756989 -5.34095764 10.91607727 -5.35159302 9.82241821 C-5.35174408 8.84155243 -5.35189514 7.86068665 -5.35205078 6.85009766 C-5.35871262 5.55103989 -5.35871262 5.55103989 -5.36550903 4.22573853 C-4.9413546 0.52093982 -3.54949068 0.14197963 0 0 Z " fill="#657C7C" transform="translate(287.125,346.875)"/>
<path d="M0 0 C1.89662394 1.17410054 3.76900659 2.38767106 5.625 3.625 C5.955 2.305 6.285 0.985 6.625 -0.375 C8.28114657 -0.75718767 9.94957024 -1.08895102 11.625 -1.375 C13.44065436 0.44065436 12.75361899 2.93769962 12.76394653 5.35388184 C12.7619223 6.15491333 12.75989807 6.95594482 12.7578125 7.78125 C12.75876923 8.59871704 12.75972595 9.41618408 12.76071167 10.25842285 C12.76139345 11.99015378 12.75953929 13.72188724 12.75537109 15.45361328 C12.75002279 18.11366482 12.75531612 20.7735475 12.76171875 23.43359375 C12.76105797 25.11197954 12.7597768 26.79036523 12.7578125 28.46875 C12.75983673 29.26978149 12.76186096 30.07081299 12.76394653 30.89611816 C12.73995079 36.51004921 12.73995079 36.51004921 11.625 37.625 C9.95882885 37.66563832 8.29111905 37.667721 6.625 37.625 C6.13 35.645 6.13 35.645 5.625 33.625 C4.531875 34.285 3.43875 34.945 2.3125 35.625 C-3.85520231 38.70337362 -10.18975085 38.64668369 -16.6875 36.5625 C-21.50195283 33.0916154 -25.96830752 28.5331084 -27.375 22.625 C-28.17019769 16.17644376 -27.35744807 10.87609496 -23.375 5.625 C-16.49216075 -0.74543471 -9.06109006 -3.69155521 0 0 Z " fill="#677E7E" transform="translate(326.375,289.375)"/>
<path d="M0 0 C2.4375 0.25 2.4375 0.25 5 1 C5.66 1.99 6.32 2.98 7 4 C7.804375 3.34 8.60875 2.68 9.4375 2 C13.45957352 -0.65608628 17.31706901 -0.86479213 22 0 C23.9921875 0.9765625 23.9921875 0.9765625 25.8125 2.125 C26.864375 2.74375 27.91625 3.3625 29 4 C31.25 3.5 31.25 3.5 33 2 C37.30467884 -0.48592918 41.1259226 -0.67813251 46 0 C50.8605071 2.38439971 53.36323298 5.31241418 56 10 C57.55765821 14.89284925 57.18423214 19.98097428 57.1875 25.0625 C57.19974609 26.06861328 57.21199219 27.07472656 57.22460938 28.11132812 C57.22654297 29.07619141 57.22847656 30.04105469 57.23046875 31.03515625 C57.23457764 31.9156665 57.23868652 32.79617676 57.24291992 33.70336914 C57 36 57 36 55 39 C52 39.375 52 39.375 49 39 C46.816835 35.7252525 46.72401667 34.59634777 46.62109375 30.78125 C46.58693359 29.76675781 46.55277344 28.75226563 46.51757812 27.70703125 C46.49115234 26.64871094 46.46472656 25.59039062 46.4375 24.5 C46.377566 22.40613571 46.31393033 20.31237317 46.24609375 18.21875 C46.22216553 17.28998047 46.1982373 16.36121094 46.17358398 15.40429688 C46.08909481 12.85546418 46.08909481 12.85546418 45 10 C40.18099349 9.58812911 40.18099349 9.58812911 35.8046875 11.32421875 C32.92792116 15.58955413 33.40088127 20.03182767 33.375 25.0625 C33.34949059 27.05350982 33.31599127 29.04443778 33.2734375 31.03515625 C33.26747559 31.9156665 33.26151367 32.79617676 33.25537109 33.70336914 C33 36 33 36 31 39 C28 39.375 28 39.375 25 39 C22.80257974 35.70386961 22.74233778 34.61875757 22.69140625 30.78125 C22.66626953 29.76675781 22.64113281 28.75226563 22.61523438 27.70703125 C22.58007912 25.56907106 22.54882881 23.4310431 22.52148438 21.29296875 C22.49505859 20.27847656 22.46863281 19.26398438 22.44140625 18.21875 C22.42795166 17.28998047 22.41449707 16.36121094 22.40063477 15.40429688 C22.17427788 12.96124868 22.17427788 12.96124868 20.69506836 11.16992188 C18.85447948 9.65665774 18.85447948 9.65665774 15.4375 10.0625 C11.99719783 10.60291502 11.99719783 10.60291502 10.80664062 12.73779297 C9.88778614 15.31470145 9.71378697 17.39931041 9.65625 20.1328125 C9.62660156 21.10347656 9.59695312 22.07414062 9.56640625 23.07421875 C9.52196544 25.11588172 9.4776959 27.15754843 9.43359375 29.19921875 C9.40394531 30.16730469 9.37429687 31.13539063 9.34375 32.1328125 C9.32505859 33.01855957 9.30636719 33.90430664 9.28710938 34.81689453 C9 37 9 37 7 39 C3.4375 38.75 3.4375 38.75 0 38 C-1.55475264 34.89049471 -1.14199524 31.5955297 -1.1328125 28.18359375 C-1.13376923 27.41193375 -1.13472595 26.64027374 -1.13571167 25.8452301 C-1.13639246 24.21363239 -1.1345452 22.58203197 -1.13037109 20.95043945 C-1.12501413 18.44411179 -1.13032319 15.93796275 -1.13671875 13.43164062 C-1.13605809 11.84895794 -1.13477719 10.26627536 -1.1328125 8.68359375 C-1.13483673 7.92944687 -1.13686096 7.17529999 -1.13894653 6.39830017 C-1.11495624 1.11495624 -1.11495624 1.11495624 0 0 Z " fill="#688080" transform="translate(109,288)"/>
<path d="M0 0 C1.32407554 0.81481572 2.64108701 1.64185429 3.9375 2.5 C4.2675 1.18 4.5975 -0.14 4.9375 -1.5 C6.875 -2.0625 6.875 -2.0625 8.9375 -2.5 C9.9375 -1.5 9.9375 -1.5 10.05102539 2.10180664 C10.05086625 3.70459856 10.04517063 5.3073956 10.03515625 6.91015625 C10.0337413 7.75219101 10.03232635 8.59422577 10.03086853 9.46177673 C10.02525263 12.16205335 10.01269748 14.86224828 10 17.5625 C9.99498705 19.38867068 9.99042379 21.21484266 9.98632812 23.04101562 C9.97527804 27.52737542 9.95800279 32.01367384 9.9375 36.5 C7.5625 36.6875 7.5625 36.6875 4.9375 36.5 C4.2775 35.51 3.6175 34.52 2.9375 33.5 C-0.60768884 34.89759905 -0.60768884 34.89759905 -4.0625 36.5 C-9.51128691 36.99756886 -14.41905002 37.26085647 -19.4375 34.9375 C-25.56044624 29.25190707 -29.08367957 25.29612428 -29.4375 16.75 C-29.38013839 11.1941182 -27.60891043 7.69739535 -24.0625 3.5 C-16.93735857 -3.26888436 -8.6577857 -4.81291079 0 0 Z " fill="#667D7D" transform="translate(202.0625,290.5)"/>
<path d="M0 0 C5.70507812 -0.11572266 5.70507812 -0.11572266 8.359375 0.92578125 C11.0524341 4.3305774 10.41727218 7.99644383 10.25 12.1875 C10.1675 15.095625 10.085 18.00375 10 21 C17.59 21 25.18 21 33 21 C32.96041741 14.4629715 32.96041741 14.4629715 32.90991211 7.92602539 C32.90741455 7.11641357 32.90491699 6.30680176 32.90234375 5.47265625 C32.89710693 4.64000244 32.89187012 3.80734863 32.88647461 2.94946289 C33 1 33 1 34 0 C35.8125 0.05078125 35.8125 0.05078125 38 0.3125 C38.721875 0.39113281 39.44375 0.46976562 40.1875 0.55078125 C40.785625 0.69902344 41.38375 0.84726562 42 1 C43.17927497 3.35854995 43.13283758 4.78816715 43.14526367 7.41796875 C43.15164352 8.33231689 43.15802338 9.24666504 43.16459656 10.1887207 C43.16570938 11.17831787 43.1668222 12.16791504 43.16796875 13.1875 C43.17296135 14.70766724 43.17296135 14.70766724 43.17805481 16.25854492 C43.18312315 18.40380397 43.18546316 20.54907091 43.18530273 22.69433594 C43.187491 25.98645922 43.20565268 29.27824848 43.22460938 32.5703125 C43.22754288 34.65104052 43.22952796 36.73177013 43.23046875 38.8125 C43.23765427 39.80209717 43.24483978 40.79169434 43.25224304 41.8112793 C43.24916641 42.72562744 43.24608978 43.63997559 43.24291992 44.58203125 C43.24434494 45.38874268 43.24576996 46.1954541 43.24723816 47.02661133 C43 49 43 49 41 51 C38.5 51.25 38.5 51.25 36 51 C34 49 34 49 33.77294922 47.12060547 C33.78342285 46.37697754 33.79389648 45.63334961 33.8046875 44.8671875 C33.80968262 44.14128418 33.81467773 43.41538086 33.81982422 42.66748047 C33.83803223 41.74596191 33.85624023 40.82444336 33.875 39.875 C33.91625 36.94625 33.9575 34.0175 34 31 C26.08 31 18.16 31 10 31 C10.07893723 36.45979658 10.07893723 36.45979658 10.18017578 41.91918945 C10.18766846 42.94338989 10.18766846 42.94338989 10.1953125 43.98828125 C10.20578613 44.68477783 10.21625977 45.38127441 10.22705078 46.09887695 C10 48 10 48 8 51 C5 51.375 5 51.375 2 51 C-0.14782833 47.77825751 -0.24649148 46.9566269 -0.22705078 43.25317383 C-0.22689972 42.29240433 -0.22674866 41.33163483 -0.22659302 40.3417511 C-0.21627045 39.30729355 -0.20594788 38.272836 -0.1953125 37.20703125 C-0.1924826 36.14586594 -0.18965271 35.08470062 -0.18673706 33.99137878 C-0.17553184 30.59830503 -0.15042647 27.20549413 -0.125 23.8125 C-0.11497065 21.51367568 -0.10584472 19.21484724 -0.09765625 16.91601562 C-0.07559141 11.27725389 -0.04211044 5.63864572 0 0 Z " fill="#688080" transform="translate(181,347)"/>
<path d="M0 0 C1.98960773 3.3183077 2.2361745 5.79959699 2.1953125 9.640625 C2.18564453 11.24550781 2.18564453 11.24550781 2.17578125 12.8828125 C2.15902344 13.99398438 2.14226562 15.10515625 2.125 16.25 C2.11597656 17.37664062 2.10695313 18.50328125 2.09765625 19.6640625 C2.07410658 22.44292365 2.0412168 25.2213539 2 28 C2.4532666 27.65743164 2.9065332 27.31486328 3.37353516 26.96191406 C5.45605332 25.38954119 7.54050918 23.81975666 9.625 22.25 C10.33785156 21.71117187 11.05070312 21.17234375 11.78515625 20.6171875 C23.30160101 11.95344007 23.30160101 11.95344007 26.8125 12.1875 C29 13 29 13 30 14 C30.375 16.29296875 30.375 16.29296875 30 19 C27.8125 21.23828125 27.8125 21.23828125 25 23.3125 C24.071875 24.00988281 23.14375 24.70726562 22.1875 25.42578125 C21.1046875 26.20501953 21.1046875 26.20501953 20 27 C21.29033905 29.27159689 22.58221402 31.54229625 23.875 33.8125 C24.23980469 34.45509766 24.60460937 35.09769531 24.98046875 35.75976562 C26.58083901 38.56768798 28.20642866 41.30964298 30 44 C30.125 47.1875 30.125 47.1875 30 50 C27.03 50.495 27.03 50.495 24 51 C19.61289767 45.53824725 15.56729645 40.03316956 12 34 C10.329375 34.928125 10.329375 34.928125 8.625 35.875 C7.99851562 36.22304688 7.37203125 36.57109375 6.7265625 36.9296875 C4.8387386 38.00897274 4.8387386 38.00897274 3 40 C2.61405508 42.1374401 2.61405508 42.1374401 2.5 44.5 C2.22222222 48.77777778 2.22222222 48.77777778 0 51 C-3.5625 50.75 -3.5625 50.75 -7 50 C-8.16425183 47.67149633 -8.13859876 46.28345621 -8.16113281 43.68969727 C-8.17074036 42.79859756 -8.1803479 41.90749786 -8.19024658 40.98939514 C-8.19449646 40.02480881 -8.19874634 39.06022247 -8.203125 38.06640625 C-8.20882507 37.07752914 -8.21452515 36.08865204 -8.22039795 35.06980896 C-8.22985377 32.97583082 -8.23638423 30.88183775 -8.24023438 28.7878418 C-8.24995004 25.57900172 -8.28097223 22.3707993 -8.3125 19.16210938 C-8.31902889 17.13021215 -8.32427981 15.09831033 -8.328125 13.06640625 C-8.3404718 12.10384415 -8.3528186 11.14128204 -8.36553955 10.14955139 C-8.36253845 9.25529953 -8.35953735 8.36104767 -8.35644531 7.43969727 C-8.36009094 6.65297134 -8.36373657 5.86624542 -8.36749268 5.05567932 C-7.49742205 0.18868114 -4.44120833 -0.36009797 0 0 Z " fill="#687F7F" transform="translate(404,276)"/>
<path d="M0 0 C3.47951438 1.69707917 6.51977257 3.19555382 9.26953125 5.9453125 C9.51953125 8.4453125 9.51953125 8.4453125 9.26953125 10.9453125 C8.60953125 11.6053125 7.94953125 12.2653125 7.26953125 12.9453125 C3.1724062 12.79070401 0.93205784 12.5084601 -2.23046875 9.8203125 C-4.71090985 7.54383487 -4.71090985 7.54383487 -8.48046875 8.1328125 C-11.5643295 8.60767466 -11.5643295 8.60767466 -12.73046875 9.9453125 C-12.77110707 11.61148365 -12.77318975 13.27919345 -12.73046875 14.9453125 C-11.80234375 15.4815625 -10.87421875 16.0178125 -9.91796875 16.5703125 C-8.96664062 17.12138672 -8.96664062 17.12138672 -7.99609375 17.68359375 C-6.3606372 18.59437386 -4.70070832 19.46168081 -3.02734375 20.30078125 C2.76025282 23.24992541 8.09134391 26.0521554 11.26953125 31.9453125 C12.01172895 36.17583942 11.62127698 38.2125089 9.76953125 42.0703125 C5.63907039 46.82034249 2.26780227 49.54761796 -4.1171875 50.39453125 C-11.1265635 50.61054815 -16.18445393 50.38212435 -21.73046875 45.9453125 C-24.04426701 43.63151424 -24.65614747 42.56961129 -25.04296875 39.3203125 C-24.73046875 36.9453125 -24.73046875 36.9453125 -22.73046875 34.9453125 C-19.39000652 35.12587803 -17.99762777 35.69341971 -15.54296875 38.0078125 C-11.90728574 40.51239413 -9.3504296 40.38546442 -5.03515625 40.37890625 C-2.68251036 40.09628344 -2.68251036 40.09628344 -0.86328125 38.66796875 C0.48611598 37.01092119 0.48611598 37.01092119 0.06787109 34.97192383 C-0.95594387 32.37293666 -1.87374526 31.97283409 -4.37109375 30.796875 C-5.11230469 30.43078125 -5.85351562 30.0646875 -6.6171875 29.6875 C-8.17691872 28.95017251 -9.73681127 28.21318618 -11.296875 27.4765625 C-16.99407694 24.66240058 -20.81307704 21.78009592 -23.73046875 15.9453125 C-23.85988597 11.24007203 -23.42491809 7.85801735 -20.54296875 4.0703125 C-13.94559883 -0.914367 -7.95439483 -3.07251302 0 0 Z " fill="#677E7E" transform="translate(90.73046875,277.0546875)"/>
<path d="M0 0 C2.5 0.25 2.5 0.25 4.5 2.25 C4.75537109 4.21777344 4.75537109 4.21777344 4.7734375 6.609375 C4.7940625 7.47820312 4.8146875 8.34703125 4.8359375 9.2421875 C4.86175655 11.06501246 4.88011792 12.88795997 4.890625 14.7109375 C5.04443776 20.50455145 5.67730273 23.81166235 9.5 28.25 C12.60048928 29.80024464 15.07894218 29.53992015 18.5 29.25 C21.88939556 27.11320715 23.22582557 26.0725233 24.5 22.25 C24.61189626 20.80470219 24.67749829 19.35548716 24.7109375 17.90625 C24.75347656 16.65521484 24.75347656 16.65521484 24.796875 15.37890625 C24.84895196 13.62651666 24.89322543 11.87387776 24.9296875 10.12109375 C24.960625 9.28707031 24.9915625 8.45304687 25.0234375 7.59375 C25.04325684 6.83255859 25.06307617 6.07136719 25.08349609 5.28710938 C25.60550098 2.73399754 26.4283345 1.79614867 28.5 0.25 C31.84192692 0.49453124 33.10543557 0.85543557 35.5 3.25 C35.67510386 5.90291757 35.73155483 8.44986174 35.6953125 11.1015625 C35.6924826 11.87559418 35.68965271 12.64962585 35.68673706 13.44711304 C35.67552754 15.92323157 35.65042203 18.3989905 35.625 20.875 C35.61497118 22.55207812 35.60584516 24.22916189 35.59765625 25.90625 C35.57558574 30.02097223 35.54105102 34.13542511 35.5 38.25 C33.025 38.745 33.025 38.745 30.5 39.25 C29.51 37.6 28.52 35.95 27.5 34.25 C26.1078125 35.2090625 26.1078125 35.2090625 24.6875 36.1875 C19.33577205 39.65038279 14.71178418 39.77411929 8.5 39.25 C3.31520398 37.48912588 0.63539268 34.6918063 -2.5 30.25 C-5.03727219 24.62042734 -4.79729219 19.05340065 -4.75 13 C-4.75773438 11.99453125 -4.76546875 10.9890625 -4.7734375 9.953125 C-4.77085937 8.9940625 -4.76828125 8.035 -4.765625 7.046875 C-4.76336914 6.17385742 -4.76111328 5.30083984 -4.75878906 4.40136719 C-4.36177729 1.10092594 -3.24191168 0.32419117 0 0 Z " fill="#677E7E" transform="translate(237.5,358.75)"/>
<path d="M0 0 C2.91387197 0.2913872 3.82565583 0.79452294 5.75 3.0625 C6.1625 3.701875 6.575 4.34125 7 5 C7.928125 4.360625 8.85625 3.72125 9.8125 3.0625 C14.90160846 -0.23045253 19.09743468 -0.53751884 25 0 C31.13499111 2.04499704 35.05687137 6.5221291 38.15234375 12.0625 C39.45021759 16.56020106 39.32836094 20.96822868 39.3125 25.625 C39.32861328 26.57890625 39.34472656 27.5328125 39.36132812 28.515625 C39.36197266 29.43085938 39.36261719 30.34609375 39.36328125 31.2890625 C39.36626221 32.12131348 39.36924316 32.95356445 39.37231445 33.81103516 C38.91520149 36.49855961 38.161663 37.38270092 36 39 C33.4375 39.3125 33.4375 39.3125 31 39 C28.52881498 36.52881498 28.75076578 35.786625 28.7265625 32.38671875 C28.7059375 31.46826172 28.6853125 30.54980469 28.6640625 29.60351562 C28.63817899 27.67131133 28.61985554 25.73898985 28.609375 23.80664062 C28.47126813 18.05511798 28.47126813 18.05511798 26.0859375 12.89453125 C23.62654906 10.66081703 22.54362936 10.07413128 19.25 9.625 C14.7246142 10.1471599 13.2328897 11.84229378 10 15 C8.8260447 17.34791059 8.83078388 18.88253664 8.75390625 21.5 C8.72103516 22.386875 8.68816406 23.27375 8.65429688 24.1875 C8.59310298 26.0623767 8.53581057 27.93738481 8.48242188 29.8125 C8.44826172 30.699375 8.41410156 31.58625 8.37890625 32.5 C8.3538501 33.3146875 8.32879395 34.129375 8.30297852 34.96875 C8 37 8 37 6 39 C3.5 39.25 3.5 39.25 1 39 C-1.55433751 36.44566249 -1.23730793 34.79266117 -1.25224304 31.31028748 C-1.24146477 30.14929283 -1.24146477 30.14929283 -1.23046875 28.96484375 C-1.23001053 28.1709877 -1.22955231 27.37713165 -1.2290802 26.55921936 C-1.22605765 24.88052883 -1.21817125 23.2018411 -1.20581055 21.52319336 C-1.18754885 18.94439842 -1.18530087 16.36596223 -1.18554688 13.78710938 C-1.18063196 12.15885104 -1.17480376 10.53059516 -1.16796875 8.90234375 C-1.16685593 8.12632309 -1.1657431 7.35030243 -1.16459656 6.55076599 C-1.11605007 1.11605007 -1.11605007 1.11605007 0 0 Z " fill="#667D7D" transform="translate(349,288)"/>
<path d="M0 0 C1.2219104 0.00607269 1.2219104 0.00607269 2.46850586 0.01226807 C3.30438232 0.01035461 4.14025879 0.00844116 5.00146484 0.00646973 C6.77010397 0.00510771 8.53875309 0.0088053 10.30737305 0.01715088 C13.02016579 0.02785031 15.7322963 0.01725631 18.44506836 0.00445557 C20.16121566 0.00577716 21.87736255 0.00833955 23.59350586 0.01226807 C24.40811279 0.0082196 25.22271973 0.00417114 26.06201172 0 C31.80108658 0.04797379 31.80108658 0.04797379 34.03100586 2.27789307 C34.40600586 4.71539307 34.40600586 4.71539307 34.03100586 7.27789307 C31.68645468 9.64488014 30.36025786 10.24590615 27.01538086 10.57086182 C25.94803711 10.53605713 24.88069336 10.50125244 23.78100586 10.46539307 C22.16452148 10.4247876 22.16452148 10.4247876 20.51538086 10.38336182 C19.69553711 10.34855713 18.87569336 10.31375244 18.03100586 10.27789307 C18.04147949 11.41331543 18.05195313 12.54873779 18.06274414 13.71856689 C18.09892641 17.9284958 18.12189988 22.13841094 18.14086914 26.34844971 C18.15093077 28.17106436 18.16458146 29.99366286 18.18188477 31.81622314 C18.20612607 34.43499741 18.21748724 37.05355838 18.22631836 39.67242432 C18.23664093 40.48814407 18.2469635 41.30386383 18.25759888 42.14430237 C18.25837446 46.04920062 18.24751247 47.95313315 16.03100586 51.27789307 C13.03100586 51.65289307 13.03100586 51.65289307 10.03100586 51.27789307 C7.50538937 47.48946834 7.77709013 44.49255977 7.83569336 40.10992432 C7.83852325 39.31511154 7.84135315 38.52029877 7.8442688 37.70140076 C7.85545881 35.16424468 7.88056095 32.62744234 7.90600586 30.09039307 C7.9160372 28.36969504 7.92516278 26.64899148 7.93334961 24.92828369 C7.95539425 20.71135064 7.9899158 16.49468182 8.03100586 12.27789307 C7.27392334 12.29674561 6.51684082 12.31559814 5.73681641 12.33502197 C4.74464111 12.34968506 3.75246582 12.36434814 2.73022461 12.37945557 C1.74626709 12.39830811 0.76230957 12.41716064 -0.25146484 12.43658447 C-2.96899414 12.27789307 -2.96899414 12.27789307 -6.15649414 10.65289307 C-7.96899414 8.27789307 -7.96899414 8.27789307 -8.40649414 5.15289307 C-7.58016156 -0.27729246 -4.9092267 0.04103696 0 0 Z " fill="#667D7D" transform="translate(260.968994140625,275.72210693359375)"/>
<path d="M0 0 C3.5625 0.1875 3.5625 0.1875 5.5625 2.1875 C6.62628386 10.74102849 4.8307386 18.87583065 2.75 27.125 C2.48896484 28.20201172 2.22792969 29.27902344 1.95898438 30.38867188 C1.43465229 32.55202722 0.90460448 34.71400581 0.36865234 36.87451172 C-0.74971283 41.47057936 -1.77478867 46.08672578 -2.7956543 50.70532227 C-3.4375 53.1875 -3.4375 53.1875 -4.4375 54.1875 C-6.8125 54.5 -6.8125 54.5 -9.4375 54.1875 C-12.46787189 51.59003838 -12.97593932 48.6345641 -13.3046875 44.75390625 C-13.34851563 43.90699219 -13.39234375 43.06007812 -13.4375 42.1875 C-13.50195312 41.12402344 -13.56640625 40.06054688 -13.6328125 38.96484375 C-14.04630599 26.07762996 -12.64598873 11.61449919 -4.4375 1.1875 C-3.4375 0.1875 -3.4375 0.1875 0 0 Z " fill="#FCFDFD" transform="translate(134.4375,118.8125)"/>
<path d="M0 0 C4.50972693 4.80816474 4.11057969 10.71647162 4 17 C1.77092492 39.66874855 1.77092492 39.66874855 -4.9921875 45.80859375 C-7 47 -7 47 -9.1875 46.75 C-11 46 -11 46 -12 45 C-13.48574299 35.65174849 -14.21784365 26.21099809 -14.375 16.75 C-14.40086182 15.96512207 -14.42672363 15.18024414 -14.45336914 14.37158203 C-14.47096596 9.11183654 -13.45772345 6.18099037 -10 2 C-6.46157859 -0.81259138 -4.29594168 -1.69576645 0 0 Z " fill="#FDFDFC" transform="translate(375,164)"/>
<path d="M0 0 C3.44226849 0.32271267 6.26760338 1.5163698 9.375 2.9375 C14.60317317 5.32258396 19.65882293 6.89239754 25.375 7.5625 C29 8 29 8 30 9 C30.07244053 11.01964199 30.08377188 13.04167124 30.0625 15.0625 C30.05347656 16.16722656 30.04445312 17.27195313 30.03515625 18.41015625 C30.02355469 19.26480469 30.01195312 20.11945313 30 21 C28.20755859 21.36351562 28.20755859 21.36351562 26.37890625 21.734375 C16.25059724 23.71559307 16.25059724 23.71559307 6.625 27.3125 C2.92624372 29.03433482 2.54141957 29.20907496 -1 28 C-1.02886338 23.52084672 -1.04675187 19.04171709 -1.0625 14.5625 C-1.07087891 13.28310547 -1.07925781 12.00371094 -1.08789062 10.68554688 C-1.09111328 9.47060547 -1.09433594 8.25566406 -1.09765625 7.00390625 C-1.10289307 5.87799072 -1.10812988 4.7520752 -1.11352539 3.59204102 C-1 1 -1 1 0 0 Z " fill="#EC7B55" transform="translate(171,149)"/>
<path d="M0 0 C0.495 6.93 0.495 6.93 1 14 C5.62 14.99 10.24 15.98 15 17 C15 17.66 15 18.32 15 19 C9.06 21.475 9.06 21.475 3 24 C3 28.62 3 33.24 3 38 C-1.39718646 36.90070338 -1.79997334 36.44549271 -4.25 32.9375 C-4.77078125 32.20402344 -5.2915625 31.47054687 -5.828125 30.71484375 C-6.21484375 30.14894531 -6.6015625 29.58304688 -7 29 C-11.13996619 29.47768841 -14.31875513 30.09590783 -18 32 C-19.32 32 -20.64 32 -22 32 C-20.5140084 27.40693504 -18.14985318 24.56430755 -15 21 C-16.33689071 16.58826067 -18.7185698 13.79774616 -21.7578125 10.453125 C-23 9 -23 9 -23 8 C-22.40574219 7.92523438 -21.81148438 7.85046875 -21.19921875 7.7734375 C-14.74204482 6.74912686 -9.86075335 4.5735723 -4.25 1.2421875 C-2 0 -2 0 0 0 Z " fill="#EE7852" transform="translate(324,185)"/>
<path d="M0 0 C1.67542976 0.28604898 3.34385343 0.61781233 5 1 C5.33 2.32 5.66 3.64 6 5 C6.556875 4.6390625 7.11375 4.278125 7.6875 3.90625 C13.10941189 0.60914142 16.64759823 -0.86134261 23 0 C25.5 1.1875 25.5 1.1875 27 3 C27.3125 5.625 27.3125 5.625 27 8 C25.30697636 9.69302364 23.00313451 9.2051527 20.6875 9.3125 C16.2153901 9.66091881 16.2153901 9.66091881 12.375 11.875 C10.27247151 15.12436221 9.86563094 17.81820178 9.75390625 21.59765625 C9.72103516 22.48130859 9.68816406 23.36496094 9.65429688 24.27539062 C9.59297453 26.1372414 9.53569894 27.99922976 9.48242188 29.86132812 C9.44826172 30.74369141 9.41410156 31.62605469 9.37890625 32.53515625 C9.3538501 33.343479 9.32879395 34.15180176 9.30297852 34.98461914 C9 37 9 37 7 39 C3.4375 38.75 3.4375 38.75 0 38 C-1.55475264 34.89049471 -1.14199524 31.5955297 -1.1328125 28.18359375 C-1.13376923 27.41193375 -1.13472595 26.64027374 -1.13571167 25.8452301 C-1.13639246 24.21363239 -1.1345452 22.58203197 -1.13037109 20.95043945 C-1.12501413 18.44411179 -1.13032319 15.93796275 -1.13671875 13.43164062 C-1.13605809 11.84895794 -1.13477719 10.26627536 -1.1328125 8.68359375 C-1.13483673 7.92944687 -1.13686096 7.17529999 -1.13894653 6.39830017 C-1.11495624 1.11495624 -1.11495624 1.11495624 0 0 Z " fill="#6A8181" transform="translate(222,288)"/>
<path d="M0 0 C2.53181527 1.98344975 4.95245813 4.04237561 7.35546875 6.1796875 C8.22042969 6.93636719 9.08539063 7.69304687 9.9765625 8.47265625 C12.11740186 10.35966754 14.24296266 12.26108294 16.35546875 14.1796875 C16.02546875 14.8396875 15.69546875 15.4996875 15.35546875 16.1796875 C14.55625 15.51582031 13.75703125 14.85195312 12.93359375 14.16796875 C-4.37121807 0.12275228 -22.67393282 -3.2424202 -44.46875 -2.60546875 C-53.61406873 -2.47327623 -53.61406873 -2.47327623 -57.64453125 -5.8203125 C-57.31453125 -6.8103125 -56.98453125 -7.8003125 -56.64453125 -8.8203125 C-40.8127996 -14.84771006 -13.40686244 -9.2283573 0 0 Z " fill="#F4AB7C" transform="translate(239.64453125,141.8203125)"/>
<path d="M0 0 C0 4.03176529 -1.48705124 5.25767953 -4.109375 8.16796875 C-18.00158481 21.62963487 -35.90031752 24.18174016 -54.3125 24.125 C-55.58673828 24.12886719 -56.86097656 24.13273437 -58.17382812 24.13671875 C-59.39134766 24.13542969 -60.60886719 24.13414062 -61.86328125 24.1328125 C-62.96969971 24.13168457 -64.07611816 24.13055664 -65.21606445 24.12939453 C-68 24 -68 24 -71 23 C-70 20 -70 20 -67.73046875 18.31640625 C-62.24907583 16.38213461 -57.07370932 16.76489169 -51.3125 16.9375 C-33.89780477 17.40816744 -18.23645566 14.67734175 -4 4 C-2.63937165 2.69453225 -1.29682374 1.36886951 0 0 Z " fill="#F5A979" transform="translate(252,171)"/>
<path d="M0 0 C4.10731787 0.26520761 7.26017875 0.55683571 10.234375 3.58984375 C12.38499377 7.60433212 12.53378768 9.64776553 11.765625 14.03515625 C10.85628837 16.88224594 9.5062083 18.34669226 7.109375 20.08984375 C4.00888572 21.64008839 1.53043282 21.3797639 -1.890625 21.08984375 C-5.26084102 18.99282045 -7.78192039 16.97030988 -8.890625 13.08984375 C-8.80866978 8.58230669 -8.37895709 6.65142565 -5.390625 3.21484375 C-4.153125 2.16296875 -4.153125 2.16296875 -2.890625 1.08984375 C-1.890625 0.08984375 -1.890625 0.08984375 0 0 Z " fill="#DAF9F9" transform="translate(299.890625,367.91015625)"/>
<path d="M0 0 C3.25371979 2.65609778 4.77779307 4.05483471 5.25390625 8.22265625 C5.02916189 12.30210699 4.24142077 14.64152673 1.9375 18.0625 C-1.37148983 20.24502521 -3.18507633 20.6757183 -7.06640625 20.43359375 C-10.10618646 19.75194607 -11.86696044 18.19767713 -14 16 C-15.73631636 12.52736727 -15.60190402 8.78806987 -15 5 C-10.59725615 -0.56136065 -6.87412826 -2.08585189 0 0 Z " fill="#DBF9F9" transform="translate(324,298)"/>
<path d="M0 0 C6.40029882 0.48185556 6.40029882 0.48185556 9.57421875 3.1796875 C11.37923896 6.63930957 12.00446399 9.14842088 12.07421875 13.0546875 C10.49857376 16.70354958 8.60672213 19.19031072 5.07421875 21.0546875 C0.92600145 21.58264243 -1.16056999 21.53081895 -4.73828125 19.3046875 C-8.13965408 15.80613259 -8.13965408 15.80613259 -8.92578125 13.0546875 C-8.84382603 8.54715044 -8.41411334 6.6162694 -5.42578125 3.1796875 C-4.18828125 2.1278125 -4.18828125 2.1278125 -2.92578125 1.0546875 C-1.92578125 0.0546875 -1.92578125 0.0546875 0 0 Z " fill="#DBFAFA" transform="translate(190.92578125,296.9453125)"/>
<path d="M0 0 C4.29080709 0.90332781 5.90470239 2.178668 8.53125 5.6015625 C10.31804929 9.32406102 9.81802265 12.89711487 8.5625 16.75 C5.82699315 19.48550685 3.58656917 19.55836288 -0.17578125 19.921875 C-2.4375 19.75 -2.4375 19.75 -5.4375 17.4375 C-8.51395163 13.30351812 -8.96631291 10.94999361 -8.4375 5.75 C-5.88017784 2.10775329 -4.3573001 0.95068366 0 0 Z " fill="#FCFDFD" transform="translate(298.4375,124.25)"/>
<path d="M0 0 C10.04832936 0.69298823 20.00582151 1.76718517 30 3 C30 4.65 30 6.3 30 8 C26.68907899 8.51083558 23.37606521 9.00663214 20.0625 9.5 C19.13630859 9.64308594 18.21011719 9.78617188 17.25585938 9.93359375 C11.43316429 10.79167513 5.88525633 11.14486785 0 11 C0 7.37 0 3.74 0 0 Z " fill="#F7A977" transform="translate(170,158)"/>
<path d="M0 0 C1.32 0.66 2.64 1.32 4 2 C3.125 6.875 3.125 6.875 2 8 C-0.45278545 8.16351903 -2.90229082 8.25455961 -5.359375 8.328125 C-9.28718462 9.32750851 -10.64972792 10.69220966 -13 14 C-13.68975073 17.5430468 -13.69976632 21.02360705 -13.6875 24.625 C-13.70408475 26.51311008 -13.72848124 28.40117215 -13.76171875 30.2890625 C-13.76131592 31.12131348 -13.76091309 31.95356445 -13.76049805 32.81103516 C-14 35 -14 35 -16 38 C-19 38.375 -19 38.375 -22 38 C-22.66 37.01 -23.32 36.02 -24 35 C-22.35 34.34 -20.7 33.68 -19 33 C-18.98541748 32.42556152 -18.97083496 31.85112305 -18.95581055 31.25927734 C-18.88086275 28.63054304 -18.78436006 26.00301448 -18.6875 23.375 C-18.65366211 22.01955078 -18.65366211 22.01955078 -18.61914062 20.63671875 C-18.40940489 15.41239234 -17.97539006 11.48075367 -15 7 C-11.71508627 4.81005752 -10.16904361 4.64722661 -6.3125 4.375 C-5.31863281 4.30023438 -4.32476562 4.22546875 -3.30078125 4.1484375 C-2.54152344 4.09945313 -1.78226563 4.05046875 -1 4 C-0.67 2.68 -0.34 1.36 0 0 Z " fill="#ADC9C9" transform="translate(249,292)"/>
<path d="M0 0 C0.99 0.33 1.98 0.66 3 1 C3.625 3.875 3.625 3.875 4 7 C2 9 2 9 -1.4765625 9.1953125 C-2.85950968 9.18201493 -4.24238654 9.15816232 -5.625 9.125 C-6.33140625 9.11597656 -7.0378125 9.10695313 -7.765625 9.09765625 C-9.51056098 9.07407603 -11.25532295 9.03820461 -13 9 C-12.98952637 10.20124512 -12.97905273 11.40249023 -12.96826172 12.64013672 C-12.93212713 17.08672112 -12.90912343 21.53329248 -12.89013672 25.97998047 C-12.88006418 27.90643494 -12.86640557 29.83287408 -12.84912109 31.75927734 C-12.82492759 34.52445252 -12.81352964 37.289426 -12.8046875 40.0546875 C-12.79436493 40.9193161 -12.78404236 41.7839447 -12.77340698 42.67477417 C-12.77300894 44.78453521 -12.87734757 46.89380718 -13 49 C-15 51 -15 51 -17.5 51.3125 C-18.325 51.209375 -19.15 51.10625 -20 51 C-20.66 50.01 -21.32 49.02 -22 48 C-21.360625 47.87625 -20.72125 47.7525 -20.0625 47.625 C-19.381875 47.41875 -18.70125 47.2125 -18 47 C-16.36342246 43.72684491 -16.7569193 40.09377769 -16.68359375 36.4921875 C-16.66281265 35.65156769 -16.64203156 34.81094788 -16.62062073 33.94485474 C-16.55514561 31.25498765 -16.4962498 28.56502157 -16.4375 25.875 C-16.39431284 24.05337511 -16.35069848 22.23176029 -16.30664062 20.41015625 C-16.19946632 15.94020606 -16.09819315 11.47015614 -16 7 C-15.16855469 6.95101563 -14.33710938 6.90203125 -13.48046875 6.8515625 C-12.39378906 6.77679688 -11.30710937 6.70203125 -10.1875 6.625 C-9.10855469 6.55539062 -8.02960938 6.48578125 -6.91796875 6.4140625 C-3.81373814 6.18804267 -3.81373814 6.18804267 -1 4 C-0.27617533 1.94074861 -0.27617533 1.94074861 0 0 Z " fill="#ACC8C8" transform="translate(295,279)"/>
<path d="M0 0 C0.66 0 1.32 0 2 0 C6.2656181 6.30702105 8.16526324 11.36245944 7 19 C5.37067894 24.9935739 2.29547697 29.64145241 -3.0625 32.8125 C-7.87808435 34.63264527 -12.93846697 34.60831984 -18 34 C-21.1875 32.5 -21.1875 32.5 -23 31 C-20.41472704 29.70736352 -18.6914858 30.04057245 -15.8125 30.1875 C-10.19742144 30.2242479 -7.44051538 29.44366499 -3 26 C0.86583818 21.01510339 2.14859715 17.36501776 2.1875 11.125 C2.20876953 9.58199219 2.20876953 9.58199219 2.23046875 8.0078125 C1.99581369 4.94536512 1.29184572 2.76751139 0 0 Z " fill="#ABC7C7" transform="translate(318,367)"/>
<path d="M0 0 C1.69140625 1.515625 1.69140625 1.515625 3 3 C2.07767578 3.25523437 2.07767578 3.25523437 1.13671875 3.515625 C0.32847656 3.75796875 -0.47976563 4.0003125 -1.3125 4.25 C-2.11300781 4.48203125 -2.91351563 4.7140625 -3.73828125 4.953125 C-6.50813963 6.23520107 -7.40212227 7.41604204 -9 10 C-9.4661393 12.37411754 -9.4661393 12.37411754 -9.44140625 14.9140625 C-9.46783203 15.83960938 -9.49425781 16.76515625 -9.52148438 17.71875 C-9.53501953 18.6778125 -9.54855469 19.636875 -9.5625 20.625 C-9.59686251 22.53402849 -9.6394254 24.44293248 -9.69140625 26.3515625 C-9.70373291 27.19541504 -9.71605957 28.03926758 -9.72875977 28.90869141 C-10 31 -10 31 -12 33 C-15.125 33.125 -15.125 33.125 -18 33 C-18.33 32.01 -18.66 31.02 -19 30 C-17.68 29.34 -16.36 28.68 -15 28 C-15.00112793 27.43079834 -15.00225586 26.86159668 -15.00341797 26.27514648 C-14.99120809 23.66143604 -14.93343342 21.05056958 -14.875 18.4375 C-14.87757813 17.54224609 -14.88015625 16.64699219 -14.8828125 15.72460938 C-14.70869854 9.78297038 -13.63455437 6.5628067 -9.47705078 2.26196289 C-6.41928257 -0.35053362 -3.93499145 -0.32122379 0 0 Z " fill="#A8C4C4" transform="translate(371,297)"/>
<path d="M0 0 C0.99 0.33 1.98 0.66 3 1 C3.0505916 7.65686814 3.0856876 14.31368694 3.10986328 20.97070312 C3.11993859 23.23667249 3.13359918 25.50262881 3.15087891 27.76855469 C3.17506011 31.02021501 3.18646763 34.27170387 3.1953125 37.5234375 C3.20563507 38.54118256 3.21595764 39.55892761 3.22659302 40.60751343 C3.22674408 41.54833771 3.22689514 42.48916199 3.22705078 43.45849609 C3.231492 44.28900482 3.23593323 45.11951355 3.24050903 45.97518921 C3 48 3 48 1 50 C-1.5 50.3125 -1.5 50.3125 -4 50 C-4.66 49.01 -5.32 48.02 -6 47 C-4.35 46.34 -2.7 45.68 -1 45 C-0.67 30.15 -0.34 15.3 0 0 Z " fill="#ACC8C8" transform="translate(224,351)"/>
<path d="M0 0 C7.92 0 15.84 0 24 0 C24 5.61 24 11.22 24 17 C23.67 17 23.34 17 23 17 C23 12.38 23 7.76 23 3 C16.4 3 9.8 3 3 3 C3.07905744 8.83392689 3.07905744 8.83392689 3.18017578 14.66748047 C3.18766846 15.75633545 3.18766846 15.75633545 3.1953125 16.8671875 C3.20578613 17.61081543 3.21625977 18.35444336 3.22705078 19.12060547 C3 21 3 21 1 23 C-1.5 23.3125 -1.5 23.3125 -4 23 C-4.66 22.01 -5.32 21.02 -6 20 C-5.360625 19.87625 -4.72125 19.7525 -4.0625 19.625 C-3.381875 19.41875 -2.70125 19.2125 -2 19 C-0.35187352 15.70374704 -0.61750669 12.00541525 -0.4375 8.375 C-0.2209375 4.229375 -0.2209375 4.229375 0 0 Z " fill="#ABC7C7" transform="translate(191,378)"/>
<path d="M0 0 C1.32 0.66 2.64 1.32 4 2 C4.02464928 7.25105442 4.04283568 12.50207545 4.05493164 17.75317383 C4.05997218 19.54094021 4.06680454 21.32870245 4.07543945 23.11645508 C4.0875173 25.68051168 4.09323094 28.24451397 4.09765625 30.80859375 C4.10281754 31.6127623 4.10797882 32.41693085 4.11329651 33.24546814 C4.11349215 35.16401715 4.06201983 37.08245368 4 39 C3 40 3 40 0.4375 40.0625 C-0.366875 40.041875 -1.17125 40.02125 -2 40 C-2.495 38.515 -2.495 38.515 -3 37 C-2.01 37 -1.02 37 0 37 C0 24.79 0 12.58 0 0 Z " fill="#A9C5C5" transform="translate(212,290)"/>
<path d="M0 0 C1.32 0.66 2.64 1.32 4 2 C3.55212676 6.64973854 1.97814403 8.37027468 -1.5625 11.3125 C-2.80193359 12.35857422 -2.80193359 12.35857422 -4.06640625 13.42578125 C-4.70449219 13.94527344 -5.34257812 14.46476562 -6 15 C-4.28272973 19.87014214 -1.5565479 23.95622794 1.34179688 28.18359375 C3.12358479 30.93226839 4.03316079 32.52664591 3.80078125 35.84375 C3 38 3 38 2 39 C-0.4375 39.25 -0.4375 39.25 -3 39 C-3.66 38.01 -4.32 37.02 -5 36 C-2.525 35.505 -2.525 35.505 0 35 C-1.22536962 28.91354871 -3.12611116 24.59525688 -6.625 19.5 C-7.04523438 18.86835938 -7.46546875 18.23671875 -7.8984375 17.5859375 C-8.92209798 16.05044678 -9.95960426 14.52420117 -11 13 C-8.49911227 10.45295494 -6.10951049 8.08213287 -3.25 5.9375 C-0.89828652 3.91241339 -0.32412372 3.02515469 0 0 Z " fill="#ACC8C8" transform="translate(434,291)"/>
<path d="M0 0 C1.5778125 0.4021875 1.5778125 0.4021875 3.1875 0.8125 C3.1875 1.4725 3.1875 2.1325 3.1875 2.8125 C2.424375 3.01875 1.66125 3.225 0.875 3.4375 C-2.82131051 5.32863561 -3.32319669 6.9403114 -4.8125 10.8125 C-5.24954928 14.22670185 -5.3229657 17.62328067 -5.375 21.0625 C-5.40936305 22.85956017 -5.4519264 24.65648809 -5.50390625 26.453125 C-5.51623291 27.24235352 -5.52855957 28.03158203 -5.54125977 28.84472656 C-5.8125 30.8125 -5.8125 30.8125 -7.8125 32.8125 C-10.3125 33.125 -10.3125 33.125 -12.8125 32.8125 C-13.4725 31.8225 -14.1325 30.8325 -14.8125 29.8125 C-14.173125 29.68875 -13.53375 29.565 -12.875 29.4375 C-12.194375 29.23125 -11.51375 29.025 -10.8125 28.8125 C-9.58599642 26.35949284 -9.68693802 24.72068349 -9.671875 21.98046875 C-9.65253906 21.01689453 -9.63320312 20.05332031 -9.61328125 19.06054688 C-9.5796248 17.03209834 -9.56121315 15.00333542 -9.55859375 12.97460938 C-9.43694474 8.16947361 -9.36924257 5.5868526 -6.50390625 1.6015625 C-3.8125 -0.1875 -3.8125 -0.1875 0 0 Z " fill="#ABC7C7" transform="translate(150.8125,297.1875)"/>
<path d="M0 0 C2 1.5 2 1.5 4 4 C4.62426003 9.52916026 4.31054227 13.34454993 1 18 C-3.00148259 22.07677931 -6.99206423 23.28293272 -12.67675781 23.48486328 C-18.36636225 23.5276942 -22.28172869 23.39210327 -27 20 C-24.09393652 18.54696826 -21.60564241 19.097807 -18.375 19.25 C-11.8676555 19.2967194 -7.76380727 18.51373864 -3 14 C0.40808326 10.16590633 0.27352968 6.69874734 0.10546875 1.79296875 C0.05326172 0.90544922 0.05326172 0.90544922 0 0 Z " fill="#ACC8C8" transform="translate(101,307)"/>
<path d="M0 0 C0.33 0.66 0.66 1.32 1 2 C-0.3921875 2.3403125 -0.3921875 2.3403125 -1.8125 2.6875 C-5.76381857 4.31451353 -6.31366345 5.10466119 -8 9 C-8.45032661 12.5585068 -8.51147562 16.10364498 -8.5625 19.6875 C-8.59685881 21.58741481 -8.63941955 23.48720455 -8.69140625 25.38671875 C-8.70373291 26.22420654 -8.71605957 27.06169434 -8.72875977 27.92456055 C-9 30 -9 30 -11 32 C-13.5 32.3125 -13.5 32.3125 -16 32 C-16.66 31.01 -17.32 30.02 -18 29 C-16.35 28.34 -14.7 27.68 -13 27 C-12.98541748 26.35973877 -12.97083496 25.71947754 -12.95581055 25.05981445 C-12.88108618 22.14345169 -12.78450707 19.22820313 -12.6875 16.3125 C-12.66494141 15.30509766 -12.64238281 14.29769531 -12.61914062 13.25976562 C-12.27730518 3.84375299 -12.27730518 3.84375299 -9 0 C-5.88173308 -1.55913346 -3.32926126 -0.66585225 0 0 Z " fill="#AAC6C6" transform="translate(130,298)"/>
<path d="M0 0 C2.5 0.5 2.5 0.5 4.3125 2.0625 C5.97517202 5.4753531 6.03533037 7.75268744 5.5 11.5 C3.25 14 3.25 14 0.5 15.5 C-1.6875 15.4375 -1.6875 15.4375 -3.5 14.5 C-5.97342266 10.78986601 -5.88503486 8.88939738 -5.5 4.5 C-4.01460526 1.45103186 -3.34078487 0.66815697 0 0 Z " fill="#FBFDFD" transform="translate(127.5,184.5)"/>
<path d="M0 0 C2.3125 1.625 2.3125 1.625 4 4 C4.45742277 7.20195936 4.55468045 9.07553259 2.875 11.875 C0.08893958 13.54663625 -1.81988862 13.46376624 -5 13 C-7.59814888 10.74827097 -7.95716454 9.34982295 -8.375 5.9375 C-8 3 -8 3 -6.8125 1.125 C-4.30201593 -0.43323149 -2.90697947 -0.49631357 0 0 Z " fill="#FBFDFD" transform="translate(277,142)"/>
<path d="M0 0 C0.99 0.33 1.98 0.66 3 1 C3 13.21 3 25.42 3 38 C0.525 38.495 0.525 38.495 -2 39 C-2.66 38.01 -3.32 37.02 -4 36 C-2.515 35.505 -2.515 35.505 -1 35 C-0.67 23.45 -0.34 11.9 0 0 Z " fill="#ACC8C8" transform="translate(339,291)"/>
<path d="M0 0 C0.99 0.66 1.98 1.32 3 2 C3.26667539 4.83727325 3.34791234 7.45383045 3.29296875 10.2890625 C3.28872391 11.10748627 3.28447906 11.92591003 3.28010559 12.76913452 C3.26328679 15.38808836 3.22562974 18.00627802 3.1875 20.625 C3.17245726 22.3984264 3.15876814 24.17186484 3.14648438 25.9453125 C3.11337292 30.2971703 3.06156952 34.64845551 3 39 C1.35 39 -0.3 39 -2 39 C-2 38.34 -2 37.68 -2 37 C-2.66 36.67 -3.32 36.34 -4 36 C-2.515 35.505 -2.515 35.505 -1 35 C-0.67 23.45 -0.34 11.9 0 0 Z " fill="#ADC9C9" transform="translate(273,362)"/>
<path d="M0 0 C3.92162327 3.52946094 5.77327808 6.51996168 6.25878906 11.83081055 C6.26104492 12.83926025 6.26330078 13.84770996 6.265625 14.88671875 C6.26820313 15.98951172 6.27078125 17.09230469 6.2734375 18.22851562 C6.26570312 19.36998047 6.25796875 20.51144531 6.25 21.6875 C6.25773438 22.84056641 6.26546875 23.99363281 6.2734375 25.18164062 C6.27085937 26.28056641 6.26828125 27.37949219 6.265625 28.51171875 C6.26336914 29.51678467 6.26111328 30.52185059 6.25878906 31.55737305 C6 34 6 34 4 36 C1.5 36.3125 1.5 36.3125 -1 36 C-1.66 35.01 -2.32 34.02 -3 33 C-2.360625 32.87625 -1.72125 32.7525 -1.0625 32.625 C-0.381875 32.41875 0.29875 32.2125 1 32 C2.90035223 28.19929555 2.18479571 23.55583919 2.1875 19.375 C2.19974609 18.40175781 2.21199219 17.42851562 2.22460938 16.42578125 C2.23639083 10.59003502 1.68049703 5.5928004 0 0 Z " fill="#ADC9C9" transform="translate(163,294)"/>
<path d="M0 0 C3.84125558 3.45713002 5.74985833 6.44123948 6.25878906 11.6472168 C6.26104492 12.57187744 6.26330078 13.49653809 6.265625 14.44921875 C6.26820313 15.46177734 6.27078125 16.47433594 6.2734375 17.51757812 C6.26570313 18.56365234 6.25796875 19.60972656 6.25 20.6875 C6.25773437 21.74517578 6.26546875 22.80285156 6.2734375 23.89257812 C6.27085937 24.90126953 6.26828125 25.90996094 6.265625 26.94921875 C6.26336914 27.87049561 6.26111328 28.79177246 6.25878906 29.7409668 C6 32 6 32 4 34 C1.5 34.3125 1.5 34.3125 -1 34 C-1.66 33.01 -2.32 32.02 -3 31 C-1.35 30.67 0.3 30.34 2 30 C2.05850924 26.31256766 2.09376673 22.6252563 2.125 18.9375 C2.14175781 17.89916016 2.15851563 16.86082031 2.17578125 15.79101562 C2.21183286 10.11288716 1.92971166 5.35608946 0 0 Z " fill="#ADC9C9" transform="translate(385,296)"/>
<path d="M0 0 C0.99 0.66 1.98 1.32 3 2 C1.8437006 5.23763833 1.03997669 5.97797203 -2.0625 7.6875 C-5.14430605 9.62729501 -5.14430605 9.62729501 -5.54296875 12.18359375 C-5.67815478 13.77776858 -5.76498971 15.37698381 -5.796875 16.9765625 C-6 19 -6 19 -8 21 C-10.5 21.3125 -10.5 21.3125 -13 21 C-13.66 20.01 -14.32 19.02 -15 18 C-13.35 17.34 -11.7 16.68 -10 16 C-10.03222656 15.43152344 -10.06445312 14.86304688 -10.09765625 14.27734375 C-10.0366472 10.21685254 -9.82046728 7.85452441 -6.9296875 4.84375 C-4.67449717 3.11877683 -2.4036224 1.51015468 0 0 Z " fill="#ABC7C7" transform="translate(415,309)"/>
<path d="M0 0 C1.19496094 0.13148438 1.19496094 0.13148438 2.4140625 0.265625 C3.06117188 0.42546875 3.70828125 0.5853125 4.375 0.75 C4.705 1.41 5.035 2.07 5.375 2.75 C4.1375 2.976875 2.9 3.20375 1.625 3.4375 C-1.3758394 4.21431304 -2.66585819 4.78370801 -5.125 6.8125 C-7.18554399 10.84773199 -6.97353983 14.30611714 -6.625 18.75 C-9.50546538 16.42704405 -10.56039185 14.9680525 -11.625 11.375 C-11.625 6.8862248 -10.47273815 5.15146502 -7.625 1.75 C-4.3237992 -0.45080053 -3.73398842 -0.46218749 0 0 Z " fill="#A9C4C4" transform="translate(302.625,368.25)"/>
<path d="M0 0 C1.19496094 0.13148438 1.19496094 0.13148438 2.4140625 0.265625 C3.06117188 0.42546875 3.70828125 0.5853125 4.375 0.75 C4.705 1.41 5.035 2.07 5.375 2.75 C4.1375 2.976875 2.9 3.20375 1.625 3.4375 C-1.3758394 4.21431304 -2.66585819 4.78370801 -5.125 6.8125 C-7.18554399 10.84773199 -6.97353983 14.30611714 -6.625 18.75 C-9.50546538 16.42704405 -10.56039185 14.9680525 -11.625 11.375 C-11.625 6.8862248 -10.47273815 5.15146502 -7.625 1.75 C-4.3237992 -0.45080053 -3.73398842 -0.46218749 0 0 Z " fill="#A9C5C5" transform="translate(193.625,297.25)"/>
<path d="M0 0 C0.33 0.66 0.66 1.32 1 2 C-0.2375 2.226875 -1.475 2.45375 -2.75 2.6875 C-5.7508394 3.46431304 -7.04085819 4.03370801 -9.5 6.0625 C-11.56054399 10.09773199 -11.34853983 13.55611714 -11 18 C-13.42233615 16.25894589 -14.81559356 14.87470667 -15.44140625 11.90625 C-15.67099525 7.46259188 -15.46263045 5.5843753 -12.625 2 C-7.91349841 -1.5897155 -5.72078429 -0.9988671 0 0 Z " fill="#AAC6C6" transform="translate(324,298)"/>
<path d="M0 0 C1.98 0.99 1.98 0.99 4 2 C4.33 9.59 4.66 17.18 5 25 C0.06111184 20.06111184 0.06111184 20.06111184 -0.11352539 17.02880859 C-0.10828857 16.24328613 -0.10305176 15.45776367 -0.09765625 14.6484375 C-0.09443359 13.79765625 -0.09121094 12.946875 -0.08789062 12.0703125 C-0.07951172 11.18085938 -0.07113281 10.29140625 -0.0625 9.375 C-0.05798828 8.4778125 -0.05347656 7.580625 -0.04882812 6.65625 C-0.03702591 4.43743352 -0.02056155 2.21874982 0 0 Z " fill="#A6C2C2" transform="translate(242,362)"/>
<path d="M0 0 C0.66 1.32 1.32 2.64 2 4 C-0.26851814 7.4027772 -1.1969941 7.83614906 -5 9 C-10.05212618 9.55892775 -14.54943082 9.68262079 -19.1875 7.5 C-19.785625 7.005 -20.38375 6.51 -21 6 C-18.53292463 4.76646231 -17.11522069 5.03055238 -14.375 5.1875 C-9.06538009 5.2645627 -5.4156903 3.87077516 -1 1 C-0.67 0.67 -0.34 0.34 0 0 Z " fill="#AAC6C6" transform="translate(265,392)"/>
<path d="M0 0 C4.62 0 9.24 0 14 0 C14 12.87 14 25.74 14 39 C13.67 39 13.34 39 13 39 C13 27.12 13 15.24 13 3 C9.37 3 5.74 3 2 3 C1.34 2.01 0.68 1.02 0 0 Z " fill="#93ADAD" transform="translate(256,285)"/>
<path d="M0 0 C4 3 4 3 4.45410156 5.36010742 C4.4331543 6.26607666 4.41220703 7.1720459 4.390625 8.10546875 C4.37773437 9.08837891 4.36484375 10.07128906 4.3515625 11.08398438 C4.31804687 12.10814453 4.28453125 13.13230469 4.25 14.1875 C4.23195313 15.22326172 4.21390625 16.25902344 4.1953125 17.32617188 C4.14814437 19.88504284 4.08234057 22.44205842 4 25 C3.01 25.33 2.02 25.66 1 26 C0.67 17.42 0.34 8.84 0 0 Z " fill="#ABC7C7" transform="translate(405,278)"/>
<path d="M0 0 C0.33 1.32 0.66 2.64 1 4 C-4.46750961 7.54649272 -9.68325015 7.74879406 -16 7 C-19.1875 5.5 -19.1875 5.5 -21 4 C-18.41139797 2.70569899 -16.63442511 3.00678586 -13.75 3.125 C-8.5299013 3.19341545 -4.66633218 0 0 0 Z " fill="#AAC5C5" transform="translate(332,323)"/>
<path d="M0 0 C0.99 0.33 1.98 0.66 3 1 C3.33 1.99 3.66 2.98 4 4 C-1.33720852 7.46197309 -6.80365251 7.95472424 -13 7 C-15.3359375 5.4765625 -15.3359375 5.4765625 -17 4 C-15.78763672 3.94392578 -15.78763672 3.94392578 -14.55078125 3.88671875 C-13.48214844 3.82097656 -12.41351563 3.75523437 -11.3125 3.6875 C-10.25675781 3.62949219 -9.20101562 3.57148438 -8.11328125 3.51171875 C-4.75854938 2.96031364 -2.86746005 1.74392374 0 0 Z " fill="#A9C5C5" transform="translate(203,323)"/>
<path d="M0 0 C0.66 0.33 1.32 0.66 2 1 C0.35 3.64 -1.3 6.28 -3 9 C-9.625 8.25 -9.625 8.25 -13 6 C-10.87959258 4.96966118 -8.75352092 3.95097146 -6.625 2.9375 C-5.44164062 2.36902344 -4.25828125 1.80054688 -3.0390625 1.21484375 C-2.03617187 0.81394531 -1.03328125 0.41304687 0 0 Z " fill="#F0AB7D" transform="translate(319,187)"/>
<path d="M0 0 C0.99 0.33 1.98 0.66 3 1 C3 6.28 3 11.56 3 17 C2.01 17 1.02 17 0 17 C0 11.39 0 5.78 0 0 Z " fill="#ADC9C9" transform="translate(191,351)"/>
<path d="M0 0 C0.33 0.66 0.66 1.32 1 2 C-0.11375 2.226875 -1.2275 2.45375 -2.375 2.6875 C-6.16038373 3.60623658 -6.16038373 3.60623658 -7.4375 6.625 C-7.7159375 7.800625 -7.7159375 7.800625 -8 9 C-8.99 8.34 -9.98 7.68 -11 7 C-11.4375 4.5625 -11.4375 4.5625 -11 2 C-7.75916232 -1.88900522 -4.6129543 -1.13147936 0 0 Z " fill="#A8C4C4" transform="translate(88,285)"/>
<path d="M0 0 C1.98 0.99 1.98 0.99 4 2 C4.609375 4.1640625 4.609375 4.1640625 4.75 6.625 C4.80671875 7.44226563 4.8634375 8.25953125 4.921875 9.1015625 C4.94765625 9.72804688 4.9734375 10.35453125 5 11 C3.35 11.66 1.7 12.32 0 13 C0 8.71 0 4.42 0 0 Z " fill="#A5C1C1" transform="translate(291,350)"/>
<path d="M0 0 C0.99 0.66 1.98 1.32 3 2 C3.25 5.0625 3.25 5.0625 3 8 C2 9 2 9 -0.9375 9.25 C-1.948125 9.1675 -2.95875 9.085 -4 9 C-4.66 8.01 -5.32 7.02 -6 6 C-5.195625 5.7525 -4.39125 5.505 -3.5625 5.25 C-0.828919 4.27761141 -0.828919 4.27761141 -0.1875 1.875 C-0.125625 1.25625 -0.06375 0.6375 0 0 Z " fill="#ACC8C8" transform="translate(100,284)"/>
<path d="M0 0 C1.32 0.99 2.64 1.98 4 3 C3.34 4.65 2.68 6.3 2 8 C0.35 8 -1.3 8 -3 8 C-3 7.34 -3 6.68 -3 6 C-3.99 5.67 -4.98 5.34 -6 5 C-5.38125 4.9175 -4.7625 4.835 -4.125 4.75 C-1.81562433 4.18741541 -1.81562433 4.18741541 -0.75 1.9375 C-0.5025 1.298125 -0.255 0.65875 0 0 Z " fill="#ACC8C8" transform="translate(289,393)"/>
<path d="M0 0 C1.67542976 0.28604898 3.34385343 0.61781233 5 1 C4.67 2.65 4.34 4.3 4 6 C2.35 5.67 0.7 5.34 -1 5 C-1 1 -1 1 0 0 Z " fill="#F7A675" transform="translate(239,156)"/>
<path d="M0 0 C1.67542976 0.28604898 3.34385343 0.61781233 5 1 C4.67 2.65 4.34 4.3 4 6 C2.68 5.67 1.36 5.34 0 5 C-0.5625 3.0625 -0.5625 3.0625 -1 1 C-0.67 0.67 -0.34 0.34 0 0 Z " fill="#FBFCFC" transform="translate(265,161)"/>
</svg>
